# xmcd
#
# Track frame offsets: 
#        150
#        19762
#        40795
#        62660
#        88787
#        108952
#        132842
#        153105
#        174440
#        195452
#
# Disc length: 2932 seconds
#
# Revision: 0
# Processed by: cddbd v1.5.2PL0 Copyright (c) Steve Scherf et al.
# Submitted via: ExactAudioCopy v0.99pb3
#
DISCID=730b720a
DTITLE=Mark Armstrong - Jump Without Falling
DYEAR=1999
DGENRE=Blues
TTITLE0=Airplanes In The Rain
TTITLE1=Love Gets In The Way
TTITLE2=Everything's Fine
TTITLE3=Sometimes Love
TTITLE4=If I Said I Had It All
TTITLE5=November
TTITLE6=Fallacy Of Gold
TTITLE7=She Said
TTITLE8=That Girl In The Song
TTITLE9=Come Again
EXTD=
EXTT0=
EXTT1=
EXTT2=
EXTT3=
EXTT4=
EXTT5=
EXTT6=
EXTT7=
EXTT8=
EXTT9=
PLAYORDER=
